<svg id="Layer_1" data-name="Layer 1" xmlns="http://www.w3.org/2000/svg" viewBox="0 0 512 512"><defs><style>.cls-1{fill:#4c9cef;}</style></defs><circle class="cls-1" cx="158.76" cy="353.43" r="60.43"/><path class="cls-1" d="M413.91,58.75A37.35,37.35,0,1,1,376.56,96.1,37.52,37.52,0,0,1,413.91,58.75Z"/><path class="cls-1" d="M512,256c0,141.39-114.62,256-256,256a256.38,256.38,0,0,1-54.87-5.9A158.45,158.45,0,0,0,312.6,319,97.79,97.79,0,1,0,192,199.17,158.47,158.47,0,0,0,5.89,310.85,256.13,256.13,0,0,1,0,256C0,114.61,114.61,0,256,0A254.85,254.85,0,0,1,393.74,40.18a60.43,60.43,0,1,0,77.19,76.7A254.67,254.67,0,0,1,512,256Z"/><path class="cls-1" d="M312.6,319A97.82,97.82,0,0,1,192,199.17,158.45,158.45,0,0,1,312.6,319Z"/></svg>